<svg width="23" height="12" viewBox="0 0 23 12" fill="none" xmlns="http://www.w3.org/2000/svg">
<path fill-rule="evenodd" clip-rule="evenodd" d="M0 5.49995C0 5.3379 0.0614554 5.18248 0.170848 5.06789C0.28024 4.9533 0.428608 4.88893 0.583312 4.88893L21.0075 4.96928L17.3362 1.12471C17.2266 1.00998 17.1651 0.854366 17.1651 0.692107C17.1651 0.529848 17.2266 0.374235 17.3362 0.259501C17.4457 0.144767 17.5943 0.0803099 17.7492 0.0803099C17.9041 0.0803099 18.0526 0.144767 18.1621 0.259501L22.8286 5.1477C22.883 5.20446 22.9261 5.27189 22.9555 5.34612C22.9849 5.42036 23 5.49994 23 5.58031C23 5.66068 22.9849 5.74026 22.9555 5.8145C22.9261 5.88873 22.883 5.95616 22.8286 6.01292L18.1621 10.9011C18.0526 11.0159 17.9041 11.0803 17.7492 11.0803C17.5943 11.0803 17.4457 11.0159 17.3362 10.9011C17.2266 10.7864 17.1651 10.6308 17.1651 10.4685C17.1651 10.3063 17.2266 10.1506 17.3362 10.0359L21.0075 6.19134L0.583312 6.11098C0.428608 6.11098 0.28024 6.0466 0.170848 5.93201C0.0614554 5.81742 0 5.66201 0 5.49995Z" fill="currentColor"/>
</svg>
