<svg width="28" height="20" viewBox="0 0 28 20" fill="none" xmlns="http://www.w3.org/2000/svg">
<path d="M11.3332 13.9998L18.2532 9.99984L11.3332 5.99984V13.9998ZM26.7465 3.55984C26.9198 4.1865 27.0398 5.0265 27.1198 6.09317C27.2132 7.15984 27.2532 8.07984 27.2532 8.87984L27.3332 9.99984C27.3332 12.9198 27.1198 15.0665 26.7465 16.4398C26.4132 17.6398 25.6398 18.4132 24.4398 18.7465C23.8132 18.9198 22.6665 19.0398 20.9065 19.1198C19.1732 19.2132 17.5865 19.2532 16.1198 19.2532L13.9998 19.3332C8.41317 19.3332 4.93317 19.1198 3.55984 18.7465C2.35984 18.4132 1.5865 17.6398 1.25317 16.4398C1.07984 15.8132 0.959837 14.9732 0.879837 13.9065C0.786504 12.8398 0.746504 11.9198 0.746504 11.1198L0.666504 9.99984C0.666504 7.07984 0.879837 4.93317 1.25317 3.55984C1.5865 2.35984 2.35984 1.5865 3.55984 1.25317C4.1865 1.07984 5.33317 0.959837 7.09317 0.879837C8.8265 0.786504 10.4132 0.746504 11.8798 0.746504L13.9998 0.666504C19.5865 0.666504 23.0665 0.879837 24.4398 1.25317C25.6398 1.5865 26.4132 2.35984 26.7465 3.55984Z" fill="#212121"/>
</svg>
